<mxfile host="app.diagrams.net" modified="2020-12-16T14:27:45.088Z" agent="5.0 (Windows NT 10.0; Win64; x64) AppleWebKit/537.36 (KHTML, like Gecko) Chrome/87.0.4280.88 Safari/537.36" etag="dqvRrXA1FtPKt4gB1mXx" version="13.9.1" type="github">
  <diagram id="Ej-7UxeY6xjESi9AxxqZ" name="Page-1">
    <mxGraphModel dx="1422" dy="762" grid="1" gridSize="10" guides="1" tooltips="1" connect="1" arrows="1" fold="1" page="1" pageScale="1" pageWidth="827" pageHeight="1169" math="0" shadow="0">
      <root>
        <mxCell id="0" />
        <mxCell id="1" parent="0" />
        <mxCell id="JdK17crXrdVNUl22l__--1" value="Add article" style="rounded=1;whiteSpace=wrap;html=1;arcSize=28;" vertex="1" parent="1">
          <mxGeometry x="339" y="100" width="150" height="40" as="geometry" />
        </mxCell>
        <mxCell id="JdK17crXrdVNUl22l__--2" value="input" style="shape=parallelogram;perimeter=parallelogramPerimeter;whiteSpace=wrap;html=1;fixedSize=1;" vertex="1" parent="1">
          <mxGeometry x="354" y="280" width="120" height="40" as="geometry" />
        </mxCell>
        <mxCell id="JdK17crXrdVNUl22l__--3" value="is valid?" style="rhombus;whiteSpace=wrap;html=1;" vertex="1" parent="1">
          <mxGeometry x="339" y="380" width="140" height="70" as="geometry" />
        </mxCell>
        <mxCell id="JdK17crXrdVNUl22l__--5" value="Authorized?" style="rhombus;whiteSpace=wrap;html=1;" vertex="1" parent="1">
          <mxGeometry x="344" y="170" width="140" height="70" as="geometry" />
        </mxCell>
        <mxCell id="JdK17crXrdVNUl22l__--6" value="Save article" style="rounded=1;whiteSpace=wrap;html=1;arcSize=28;" vertex="1" parent="1">
          <mxGeometry x="339" y="510" width="150" height="40" as="geometry" />
        </mxCell>
        <mxCell id="JdK17crXrdVNUl22l__--7" value="" style="endArrow=classic;html=1;entryX=0.5;entryY=0;entryDx=0;entryDy=0;exitX=0.5;exitY=1;exitDx=0;exitDy=0;" edge="1" parent="1" source="JdK17crXrdVNUl22l__--1" target="JdK17crXrdVNUl22l__--5">
          <mxGeometry width="50" height="50" relative="1" as="geometry">
            <mxPoint x="390" y="320" as="sourcePoint" />
            <mxPoint x="440" y="270" as="targetPoint" />
          </mxGeometry>
        </mxCell>
        <mxCell id="JdK17crXrdVNUl22l__--8" value="" style="endArrow=classic;html=1;exitX=0;exitY=0.5;exitDx=0;exitDy=0;" edge="1" parent="1" source="JdK17crXrdVNUl22l__--5">
          <mxGeometry width="50" height="50" relative="1" as="geometry">
            <mxPoint x="390" y="320" as="sourcePoint" />
            <mxPoint x="240" y="120" as="targetPoint" />
            <Array as="points">
              <mxPoint x="270" y="205" />
              <mxPoint x="270" y="120" />
            </Array>
          </mxGeometry>
        </mxCell>
        <mxCell id="JdK17crXrdVNUl22l__--9" value="" style="endArrow=classic;html=1;entryX=1;entryY=0.5;entryDx=0;entryDy=0;exitX=1;exitY=0.5;exitDx=0;exitDy=0;" edge="1" parent="1" source="JdK17crXrdVNUl22l__--5" target="JdK17crXrdVNUl22l__--2">
          <mxGeometry width="50" height="50" relative="1" as="geometry">
            <mxPoint x="424" y="130" as="sourcePoint" />
            <mxPoint x="424" y="180" as="targetPoint" />
            <Array as="points">
              <mxPoint x="550" y="205" />
              <mxPoint x="550" y="300" />
            </Array>
          </mxGeometry>
        </mxCell>
        <mxCell id="JdK17crXrdVNUl22l__--10" value="" style="endArrow=classic;html=1;entryX=0.5;entryY=0;entryDx=0;entryDy=0;exitX=0.45;exitY=1;exitDx=0;exitDy=0;exitPerimeter=0;" edge="1" parent="1" source="JdK17crXrdVNUl22l__--2" target="JdK17crXrdVNUl22l__--3">
          <mxGeometry width="50" height="50" relative="1" as="geometry">
            <mxPoint x="434" y="140" as="sourcePoint" />
            <mxPoint x="434" y="190" as="targetPoint" />
          </mxGeometry>
        </mxCell>
        <mxCell id="JdK17crXrdVNUl22l__--11" value="" style="endArrow=classic;html=1;exitX=1;exitY=0.5;exitDx=0;exitDy=0;entryX=1;entryY=0.5;entryDx=0;entryDy=0;" edge="1" parent="1" source="JdK17crXrdVNUl22l__--3" target="JdK17crXrdVNUl22l__--6">
          <mxGeometry width="50" height="50" relative="1" as="geometry">
            <mxPoint x="390" y="320" as="sourcePoint" />
            <mxPoint x="440" y="270" as="targetPoint" />
            <Array as="points">
              <mxPoint x="540" y="415" />
              <mxPoint x="540" y="530" />
            </Array>
          </mxGeometry>
        </mxCell>
        <mxCell id="JdK17crXrdVNUl22l__--12" value="" style="endArrow=classic;html=1;exitX=0;exitY=0.5;exitDx=0;exitDy=0;entryX=0;entryY=0.5;entryDx=0;entryDy=0;" edge="1" parent="1" source="JdK17crXrdVNUl22l__--3" target="JdK17crXrdVNUl22l__--2">
          <mxGeometry width="50" height="50" relative="1" as="geometry">
            <mxPoint x="489" y="425" as="sourcePoint" />
            <mxPoint x="499" y="540" as="targetPoint" />
            <Array as="points">
              <mxPoint x="300" y="415" />
              <mxPoint x="300" y="300" />
            </Array>
          </mxGeometry>
        </mxCell>
        <mxCell id="JdK17crXrdVNUl22l__--13" value="NO" style="text;html=1;strokeColor=none;fillColor=none;align=center;verticalAlign=middle;whiteSpace=wrap;rounded=0;" vertex="1" parent="1">
          <mxGeometry x="299" y="180" width="40" height="20" as="geometry" />
        </mxCell>
        <mxCell id="JdK17crXrdVNUl22l__--14" value="NO" style="text;html=1;strokeColor=none;fillColor=none;align=center;verticalAlign=middle;whiteSpace=wrap;rounded=0;" vertex="1" parent="1">
          <mxGeometry x="304" y="390" width="40" height="20" as="geometry" />
        </mxCell>
        <mxCell id="JdK17crXrdVNUl22l__--15" value="YES" style="text;html=1;strokeColor=none;fillColor=none;align=center;verticalAlign=middle;whiteSpace=wrap;rounded=0;" vertex="1" parent="1">
          <mxGeometry x="500" y="180" width="40" height="20" as="geometry" />
        </mxCell>
        <mxCell id="JdK17crXrdVNUl22l__--16" value="YES" style="text;html=1;strokeColor=none;fillColor=none;align=center;verticalAlign=middle;whiteSpace=wrap;rounded=0;" vertex="1" parent="1">
          <mxGeometry x="489" y="390" width="40" height="20" as="geometry" />
        </mxCell>
        <mxCell id="JdK17crXrdVNUl22l__--17" value="Authorization" style="rounded=1;whiteSpace=wrap;html=1;arcSize=28;" vertex="1" parent="1">
          <mxGeometry x="90" y="100" width="150" height="40" as="geometry" />
        </mxCell>
        <mxCell id="JdK17crXrdVNUl22l__--18" value="" style="endArrow=classic;html=1;entryX=0;entryY=0.5;entryDx=0;entryDy=0;exitX=0.5;exitY=0;exitDx=0;exitDy=0;" edge="1" parent="1" source="JdK17crXrdVNUl22l__--17" target="JdK17crXrdVNUl22l__--1">
          <mxGeometry width="50" height="50" relative="1" as="geometry">
            <mxPoint x="390" y="320" as="sourcePoint" />
            <mxPoint x="440" y="270" as="targetPoint" />
            <Array as="points">
              <mxPoint x="165" y="50" />
              <mxPoint x="300" y="50" />
              <mxPoint x="300" y="120" />
            </Array>
          </mxGeometry>
        </mxCell>
        <mxCell id="JdK17crXrdVNUl22l__--19" value="" style="ellipse;fillColor=#000000;strokeColor=none;" vertex="1" parent="1">
          <mxGeometry x="394.5" y="10" width="39" height="40" as="geometry" />
        </mxCell>
        <mxCell id="JdK17crXrdVNUl22l__--20" value="" style="endArrow=classic;html=1;entryX=0.5;entryY=0;entryDx=0;entryDy=0;exitX=0.5;exitY=1;exitDx=0;exitDy=0;" edge="1" parent="1" source="JdK17crXrdVNUl22l__--19" target="JdK17crXrdVNUl22l__--1">
          <mxGeometry width="50" height="50" relative="1" as="geometry">
            <mxPoint x="390" y="320" as="sourcePoint" />
            <mxPoint x="440" y="270" as="targetPoint" />
          </mxGeometry>
        </mxCell>
      </root>
    </mxGraphModel>
  </diagram>
</mxfile>
